<svg id="visual" viewBox="0 0 900 600" width="900" height="600" xmlns="http://www.w3.org/2000/svg" xmlns:xlink="http://www.w3.org/1999/xlink" version="1.1"><path d="M0 438L15 439.8C30 441.7 60 445.3 90 452C120 458.7 150 468.3 180 480.2C210 492 240 506 270 491.2C300 476.3 330 432.7 360 429C390 425.3 420 461.7 450 477.2C480 492.7 510 487.3 540 481C570 474.7 600 467.3 630 452C660 436.7 690 413.3 720 406.5C750 399.7 780 409.3 810 415.2C840 421 870 423 885 424L900 425L900 601L885 601C870 601 840 601 810 601C780 601 750 601 720 601C690 601 660 601 630 601C600 601 570 601 540 601C510 601 480 601 450 601C420 601 390 601 360 601C330 601 300 601 270 601C240 601 210 601 180 601C150 601 120 601 90 601C60 601 30 601 15 601L0 601Z" fill="#0066FF" stroke-linecap="round" stroke-linejoin="miter"></path></svg>